<svg width="24" height="24" fill="none" xmlns="http://www.w3.org/2000/svg"><path d="M17.5 4.5c-1.95 0-4.05.4-5.5 1.5-1.45-1.1-3.55-1.5-5.5-1.5-1.45 0-2.99.22-4.28.79C1.49 5.62 1 6.33 1 7.14v11.28c0 1.3 1.22 2.26 2.48 1.94.98-.25 2.02-.36 3.02-.36 1.56 0 3.22.26 4.56.92.6.3 1.28.3 1.87 0 1.34-.67 3-.92 4.56-.92 1 0 2.04.11 3.02.36 1.26.33 2.48-.63 2.48-1.94V7.14c0-.81-.49-1.52-1.22-1.85-1.28-.57-2.82-.79-4.27-.79ZM21 17.23c0 .63-.58 1.09-1.2.98-.75-.14-1.53-.2-2.3-.2-1.7 0-4.15.65-5.5 1.5V8c1.35-.85 3.8-1.5 5.5-1.5.92 0 1.83.09 2.7.28.46.1.8.51.8.98v9.47Z" fill="url(#a)"/><path d="M13.98 11.01c-.32 0-.61-.2-.71-.52-.13-.39.09-.82.48-.94 1.54-.5 3.53-.66 5.36-.45.41.05.71.42.66.83-.05.41-.42.71-.83.66-1.62-.19-3.39-.04-4.73.39-.08.01-.16.03-.23.03Z" fill="url(#b)"/><path d="M13.98 13.67c-.32 0-.61-.2-.71-.52-.13-.39.09-.82.48-.94 1.53-.5 3.53-.66 5.36-.45.41.05.71.42.66.83-.05.41-.42.71-.83.66-1.62-.19-3.39-.04-4.73.39a.97.97 0 0 1-.23.03Z" fill="url(#c)"/><path d="M13.98 16.33c-.32 0-.61-.2-.71-.52-.13-.39.09-.82.48-.94 1.53-.5 3.53-.66 5.36-.45.41.05.71.42.66.83-.05.41-.42.7-.83.66-1.62-.19-3.39-.04-4.73.39a.97.97 0 0 1-.23.03Z" fill="url(#d)"/><defs><linearGradient id="a" x1="11.995" y1="4.5" x2="11.995" y2="21.145" gradientUnits="userSpaceOnUse"><stop stop-color="#18A0FB"/><stop offset="1" stop-color="#0041C0"/></linearGradient><linearGradient id="b" x1="16.504" y1="9.01" x2="16.504" y2="11.01" gradientUnits="userSpaceOnUse"><stop stop-color="#18A0FB"/><stop offset="1" stop-color="#0041C0"/></linearGradient><linearGradient id="c" x1="16.504" y1="11.67" x2="16.504" y2="13.67" gradientUnits="userSpaceOnUse"><stop stop-color="#18A0FB"/><stop offset="1" stop-color="#0041C0"/></linearGradient><linearGradient id="d" x1="16.504" y1="14.33" x2="16.504" y2="16.33" gradientUnits="userSpaceOnUse"><stop stop-color="#18A0FB"/><stop offset="1" stop-color="#0041C0"/></linearGradient></defs></svg>