<svg width="140" height="38" fill="none" xmlns="http://www.w3.org/2000/svg"><path d="M14.64 6.184c-1.088 0-1.872.256-2.352.768-.48.512-.72 1.376-.72 2.592v1.968h6l-.816 5.28h-5.184V37H3.984V16.792H.144v-5.28h3.84V9.256c0-2.56.832-4.64 2.496-6.24C8.176 1.384 10.592.568 13.728.568c2.528 0 4.848.544 6.96 1.632l-2.064 4.944a8.803 8.803 0 0 0-3.984-.96ZM41.59 37h-6.577l-.336-3.216c-1.856 2.688-4.432 4.032-7.728 4.032-2.336 0-4.112-.704-5.328-2.112-1.184-1.408-1.776-3.376-1.776-5.904V11.512h7.584V28.84c0 1.248.192 2.128.576 2.64.416.48 1.04.72 1.872.72 1.6 0 2.976-.992 4.128-2.976V11.512h7.584V37ZM54.322 37.816c-2.208 0-3.936-.624-5.184-1.872-1.216-1.28-1.824-3.088-1.824-5.424V1.384l7.584-.816v29.664c0 1.056.432 1.584 1.296 1.584.448 0 .864-.08 1.248-.24l1.488 5.376c-1.376.576-2.912.864-4.608.864ZM81.826 29.608c0 .96.128 1.664.384 2.112.288.448.736.784 1.344 1.008l-1.584 4.944c-1.568-.128-2.848-.464-3.84-1.008-.992-.576-1.76-1.472-2.304-2.688-1.664 2.56-4.224 3.84-7.68 3.84-2.528 0-4.544-.736-6.048-2.208-1.504-1.472-2.256-3.392-2.256-5.76 0-2.784 1.024-4.912 3.072-6.384 2.048-1.472 5.008-2.208 8.88-2.208h2.592v-1.104c0-1.504-.32-2.528-.96-3.072-.64-.576-1.76-.864-3.36-.864-.832 0-1.84.128-3.024.384a28.02 28.02 0 0 0-3.648.96l-1.728-4.992a29.378 29.378 0 0 1 4.896-1.392c1.696-.32 3.264-.48 4.704-.48 3.648 0 6.32.752 8.016 2.256 1.696 1.504 2.544 3.76 2.544 6.768v9.888Zm-11.472 2.784c1.728 0 3.072-.816 4.032-2.448v-4.512h-1.872c-1.728 0-3.024.304-3.888.912-.832.608-1.248 1.552-1.248 2.832 0 1.024.256 1.824.768 2.4.544.544 1.28.816 2.208.816ZM102.795 10.696c2.208 0 3.936.672 5.184 2.016 1.248 1.344 1.872 3.232 1.872 5.664V37h-7.584V19.672c0-1.28-.208-2.16-.624-2.64-.384-.512-.976-.768-1.776-.768-1.536 0-3.008 1.104-4.416 3.312V37h-7.584V11.512h6.624l.528 3.024c1.088-1.28 2.256-2.24 3.504-2.88 1.28-.64 2.704-.96 4.272-.96ZM126.61 10.696c3.904 0 6.96 1.2 9.168 3.6 2.208 2.368 3.312 5.696 3.312 9.984 0 2.72-.512 5.104-1.536 7.152-.992 2.016-2.432 3.584-4.32 4.704-1.856 1.12-4.064 1.68-6.624 1.68-3.872 0-6.928-1.184-9.168-3.552-2.208-2.4-3.312-5.744-3.312-10.032 0-2.72.496-5.088 1.488-7.104 1.024-2.048 2.464-3.632 4.32-4.752 1.888-1.12 4.112-1.68 6.672-1.68Zm0 5.568c-1.536 0-2.688.656-3.456 1.968-.768 1.28-1.152 3.28-1.152 6 0 2.784.368 4.816 1.104 6.096.768 1.28 1.936 1.92 3.504 1.92 1.536 0 2.688-.64 3.456-1.92.768-1.312 1.152-3.328 1.152-6.048 0-2.784-.384-4.816-1.152-6.096-.736-1.28-1.888-1.92-3.456-1.92Z" fill="#141414"/></svg>